<?xml version="1.0" encoding="UTF-8" standalone="no"?>
<!DOCTYPE svg PUBLIC "-//W3C//DTD SVG 1.1//EN"
 "http://www.w3.org/Graphics/SVG/1.1/DTD/svg11.dtd">
<!-- Generated by graphviz version 2.40.1 (20161225.0304)
 -->
<!-- Title: %0 Pages: 1 -->
<svg width="875pt" height="904pt"
 viewBox="0.00 0.00 874.98 903.73" xmlns="http://www.w3.org/2000/svg" xmlns:xlink="http://www.w3.org/1999/xlink">
<g id="graph0" class="graph" transform="scale(1 1) rotate(0) translate(4 899.7306)">
<title>%0</title>
<polygon fill="#ffffff" stroke="transparent" points="-4,4 -4,-899.7306 870.9811,-899.7306 870.9811,4 -4,4"/>
<text text-anchor="middle" x="433.4905" y="-877.3306" font-family="Roboto Condensed, sans-serif" font-size="16.00" fill="#000000">empty&#45;trash</text>
<!-- empty&#45;trash@3.0.0 -->
<g id="node1" class="node">
<title>empty&#45;trash@3.0.0</title>
<path fill="none" stroke="#000000" d="M84.0354,-290.3011C84.0354,-290.3011 6.6327,-290.3011 6.6327,-290.3011 3.399,-290.3011 .1653,-287.0674 .1653,-283.8337 .1653,-283.8337 .1653,-277.3663 .1653,-277.3663 .1653,-274.1326 3.399,-270.8989 6.6327,-270.8989 6.6327,-270.8989 84.0354,-270.8989 84.0354,-270.8989 87.2691,-270.8989 90.5028,-274.1326 90.5028,-277.3663 90.5028,-277.3663 90.5028,-283.8337 90.5028,-283.8337 90.5028,-287.0674 87.2691,-290.3011 84.0354,-290.3011"/>
<text text-anchor="middle" x="45.334" y="-277.3" font-family="Roboto Condensed, sans-serif" font-size="11.00" fill="#000000">empty&#45;trash@3.0.0</text>
</g>
<!-- path&#45;exists@4.0.0 -->
<g id="node2" class="node">
<title>path&#45;exists@4.0.0</title>
<path fill="none" stroke="#000000" d="M208.9302,-364.3011C208.9302,-364.3011 136.2962,-364.3011 136.2962,-364.3011 133.0625,-364.3011 129.8288,-361.0674 129.8288,-357.8337 129.8288,-357.8337 129.8288,-351.3663 129.8288,-351.3663 129.8288,-348.1326 133.0625,-344.8989 136.2962,-344.8989 136.2962,-344.8989 208.9302,-344.8989 208.9302,-344.8989 212.1639,-344.8989 215.3976,-348.1326 215.3976,-351.3663 215.3976,-351.3663 215.3976,-357.8337 215.3976,-357.8337 215.3976,-361.0674 212.1639,-364.3011 208.9302,-364.3011"/>
<text text-anchor="middle" x="172.6132" y="-351.3" font-family="Roboto Condensed, sans-serif" font-size="11.00" fill="#000000">path&#45;exists@4.0.0</text>
</g>
<!-- empty&#45;trash@3.0.0&#45;&gt;path&#45;exists@4.0.0 -->
<g id="edge1" class="edge">
<title>empty&#45;trash@3.0.0&#45;&gt;path&#45;exists@4.0.0</title>
<path fill="none" stroke="#000000" d="M57.4463,-290.264C72.862,-302.2446 100.6253,-322.7697 126.6681,-336.6 129.5432,-338.1269 132.5772,-339.5971 135.6594,-340.9937"/>
<polygon fill="#000000" stroke="#000000" points="134.3686,-344.2482 144.9404,-344.9465 137.1115,-337.8079 134.3686,-344.2482"/>
</g>
<!-- rimraf@3.0.2 -->
<g id="node3" class="node">
<title>rimraf@3.0.2</title>
<path fill="none" stroke="#000000" d="M198.7593,-327.3011C198.7593,-327.3011 146.4671,-327.3011 146.4671,-327.3011 143.2334,-327.3011 139.9998,-324.0674 139.9998,-320.8337 139.9998,-320.8337 139.9998,-314.3663 139.9998,-314.3663 139.9998,-311.1326 143.2334,-307.8989 146.4671,-307.8989 146.4671,-307.8989 198.7593,-307.8989 198.7593,-307.8989 201.993,-307.8989 205.2266,-311.1326 205.2266,-314.3663 205.2266,-314.3663 205.2266,-320.8337 205.2266,-320.8337 205.2266,-324.0674 201.993,-327.3011 198.7593,-327.3011"/>
<text text-anchor="middle" x="172.6132" y="-314.3" font-family="Roboto Condensed, sans-serif" font-size="11.00" fill="#000000">rimraf@3.0.2</text>
</g>
<!-- empty&#45;trash@3.0.0&#45;&gt;rimraf@3.0.2 -->
<g id="edge2" class="edge">
<title>empty&#45;trash@3.0.0&#45;&gt;rimraf@3.0.2</title>
<path fill="none" stroke="#000000" d="M78.4429,-290.2247C94.2054,-294.8069 113.2428,-300.3411 130.0638,-305.2309"/>
<polygon fill="#000000" stroke="#000000" points="129.0906,-308.5928 139.6701,-308.0235 131.0447,-301.8711 129.0906,-308.5928"/>
</g>
<!-- run&#45;jxa@2.0.0 -->
<g id="node4" class="node">
<title>run&#45;jxa@2.0.0</title>
<path fill="none" stroke="#000000" d="M201.0394,-290.3011C201.0394,-290.3011 144.187,-290.3011 144.187,-290.3011 140.9533,-290.3011 137.7196,-287.0674 137.7196,-283.8337 137.7196,-283.8337 137.7196,-277.3663 137.7196,-277.3663 137.7196,-274.1326 140.9533,-270.8989 144.187,-270.8989 144.187,-270.8989 201.0394,-270.8989 201.0394,-270.8989 204.2731,-270.8989 207.5068,-274.1326 207.5068,-277.3663 207.5068,-277.3663 207.5068,-283.8337 207.5068,-283.8337 207.5068,-287.0674 204.2731,-290.3011 201.0394,-290.3011"/>
<text text-anchor="middle" x="172.6132" y="-277.3" font-family="Roboto Condensed, sans-serif" font-size="11.00" fill="#000000">run&#45;jxa@2.0.0</text>
</g>
<!-- empty&#45;trash@3.0.0&#45;&gt;run&#45;jxa@2.0.0 -->
<g id="edge3" class="edge">
<title>empty&#45;trash@3.0.0&#45;&gt;run&#45;jxa@2.0.0</title>
<path fill="none" stroke="#000000" d="M90.5663,-280.6C102.5033,-280.6 115.3857,-280.6 127.3257,-280.6"/>
<polygon fill="#000000" stroke="#000000" points="127.5283,-284.1001 137.5283,-280.6 127.5283,-277.1001 127.5283,-284.1001"/>
</g>
<!-- p&#45;filter@2.1.0 -->
<g id="node5" class="node">
<title>p&#45;filter@2.1.0</title>
<path fill="none" stroke="#000000" d="M200.3158,-215.3011C200.3158,-215.3011 144.9106,-215.3011 144.9106,-215.3011 141.6769,-215.3011 138.4432,-212.0674 138.4432,-208.8337 138.4432,-208.8337 138.4432,-202.3663 138.4432,-202.3663 138.4432,-199.1326 141.6769,-195.8989 144.9106,-195.8989 144.9106,-195.8989 200.3158,-195.8989 200.3158,-195.8989 203.5495,-195.8989 206.7832,-199.1326 206.7832,-202.3663 206.7832,-202.3663 206.7832,-208.8337 206.7832,-208.8337 206.7832,-212.0674 203.5495,-215.3011 200.3158,-215.3011"/>
<text text-anchor="middle" x="172.6132" y="-202.3" font-family="Roboto Condensed, sans-serif" font-size="11.00" fill="#000000">p&#45;filter@2.1.0</text>
</g>
<!-- empty&#45;trash@3.0.0&#45;&gt;p&#45;filter@2.1.0 -->
<g id="edge4" class="edge">
<title>empty&#45;trash@3.0.0&#45;&gt;p&#45;filter@2.1.0</title>
<path fill="none" stroke="#000000" d="M61.713,-270.9486C83.4792,-258.1227 122.1432,-235.3398 147.5799,-220.351"/>
<polygon fill="#000000" stroke="#000000" points="149.4585,-223.3066 156.2971,-215.2144 145.9047,-217.2757 149.4585,-223.3066"/>
</g>
<!-- xdg&#45;trashdir@3.1.0 -->
<g id="node6" class="node">
<title>xdg&#45;trashdir@3.1.0</title>
<path fill="none" stroke="#000000" d="M212.0361,-93.3011C212.0361,-93.3011 133.1903,-93.3011 133.1903,-93.3011 129.9566,-93.3011 126.7229,-90.0674 126.7229,-86.8337 126.7229,-86.8337 126.7229,-80.3663 126.7229,-80.3663 126.7229,-77.1326 129.9566,-73.8989 133.1903,-73.8989 133.1903,-73.8989 212.0361,-73.8989 212.0361,-73.8989 215.2698,-73.8989 218.5035,-77.1326 218.5035,-80.3663 218.5035,-80.3663 218.5035,-86.8337 218.5035,-86.8337 218.5035,-90.0674 215.2698,-93.3011 212.0361,-93.3011"/>
<text text-anchor="middle" x="172.6132" y="-80.3" font-family="Roboto Condensed, sans-serif" font-size="11.00" fill="#000000">xdg&#45;trashdir@3.1.0</text>
</g>
<!-- empty&#45;trash@3.0.0&#45;&gt;xdg&#45;trashdir@3.1.0 -->
<g id="edge5" class="edge">
<title>empty&#45;trash@3.0.0&#45;&gt;xdg&#45;trashdir@3.1.0</title>
<path fill="none" stroke="#000000" d="M51.6458,-270.8307C71.7493,-239.715 134.5011,-142.5892 160.8148,-101.8612"/>
<polygon fill="#000000" stroke="#000000" points="163.7763,-103.727 166.2633,-93.4282 157.8967,-99.9283 163.7763,-103.727"/>
</g>
<!-- glob@7.1.6 -->
<g id="node7" class="node">
<title>glob@7.1.6</title>
<path fill="none" stroke="#000000" d="M337.3955,-772.3011C337.3955,-772.3011 292.9549,-772.3011 292.9549,-772.3011 289.7212,-772.3011 286.4876,-769.0674 286.4876,-765.8337 286.4876,-765.8337 286.4876,-759.3663 286.4876,-759.3663 286.4876,-756.1326 289.7212,-752.8989 292.9549,-752.8989 292.9549,-752.8989 337.3955,-752.8989 337.3955,-752.8989 340.6292,-752.8989 343.8628,-756.1326 343.8628,-759.3663 343.8628,-759.3663 343.8628,-765.8337 343.8628,-765.8337 343.8628,-769.0674 340.6292,-772.3011 337.3955,-772.3011"/>
<text text-anchor="middle" x="315.1752" y="-759.3" font-family="Roboto Condensed, sans-serif" font-size="11.00" fill="#000000">glob@7.1.6</text>
</g>
<!-- rimraf@3.0.2&#45;&gt;glob@7.1.6 -->
<g id="edge6" class="edge">
<title>rimraf@3.0.2&#45;&gt;glob@7.1.6</title>
<path fill="none" stroke="#000000" d="M205.6539,-325.5195C210.5975,-328.0146 215.1655,-331.2931 218.5583,-335.6 291.0206,-427.5849 226.3154,-482.9587 254.5583,-596.6 268.1282,-651.2011 293.3609,-712.756 306.5848,-743.2854"/>
<polygon fill="#000000" stroke="#000000" points="303.5032,-744.9735 310.7226,-752.7279 309.9146,-742.1639 303.5032,-744.9735"/>
</g>
<!-- subsume@3.0.0 -->
<g id="node8" class="node">
<title>subsume@3.0.0</title>
<path fill="none" stroke="#000000" d="M346.8342,-252.3011C346.8342,-252.3011 283.5162,-252.3011 283.5162,-252.3011 280.2825,-252.3011 277.0488,-249.0674 277.0488,-245.8337 277.0488,-245.8337 277.0488,-239.3663 277.0488,-239.3663 277.0488,-236.1326 280.2825,-232.8989 283.5162,-232.8989 283.5162,-232.8989 346.8342,-232.8989 346.8342,-232.8989 350.0679,-232.8989 353.3016,-236.1326 353.3016,-239.3663 353.3016,-239.3663 353.3016,-245.8337 353.3016,-245.8337 353.3016,-249.0674 350.0679,-252.3011 346.8342,-252.3011"/>
<text text-anchor="middle" x="315.1752" y="-239.3" font-family="Roboto Condensed, sans-serif" font-size="11.00" fill="#000000">subsume@3.0.0</text>
</g>
<!-- run&#45;jxa@2.0.0&#45;&gt;subsume@3.0.0 -->
<g id="edge7" class="edge">
<title>run&#45;jxa@2.0.0&#45;&gt;subsume@3.0.0</title>
<path fill="none" stroke="#000000" d="M207.8533,-271.2067C226.4045,-266.2619 249.3756,-260.1389 269.2998,-254.8281"/>
<polygon fill="#000000" stroke="#000000" points="270.3403,-258.1731 279.1015,-252.2155 268.5374,-251.4092 270.3403,-258.1731"/>
</g>
<!-- type&#45;fest@0.20.2 -->
<g id="node9" class="node">
<title>type&#45;fest@0.20.2</title>
<path fill="none" stroke="#000000" d="M836.7528,-271.3011C836.7528,-271.3011 767.4649,-271.3011 767.4649,-271.3011 764.2313,-271.3011 760.9976,-268.0674 760.9976,-264.8337 760.9976,-264.8337 760.9976,-258.3663 760.9976,-258.3663 760.9976,-255.1326 764.2313,-251.8989 767.4649,-251.8989 767.4649,-251.8989 836.7528,-251.8989 836.7528,-251.8989 839.9864,-251.8989 843.2201,-255.1326 843.2201,-258.3663 843.2201,-258.3663 843.2201,-264.8337 843.2201,-264.8337 843.2201,-268.0674 839.9864,-271.3011 836.7528,-271.3011"/>
<text text-anchor="middle" x="802.1088" y="-258.3" font-family="Roboto Condensed, sans-serif" font-size="11.00" fill="#000000">type&#45;fest@0.20.2</text>
</g>
<!-- run&#45;jxa@2.0.0&#45;&gt;type&#45;fest@0.20.2 -->
<g id="edge8" class="edge">
<title>run&#45;jxa@2.0.0&#45;&gt;type&#45;fest@0.20.2</title>
<path fill="none" stroke="#000000" d="M207.8065,-279.5378C313.2025,-276.3566 626.6567,-266.8957 750.7246,-263.1509"/>
<polygon fill="#000000" stroke="#000000" points="750.8405,-266.6491 760.7303,-262.8489 750.6293,-259.6523 750.8405,-266.6491"/>
</g>
<!-- macos&#45;version@5.2.0 -->
<g id="node11" class="node">
<title>macos&#45;version@5.2.0</title>
<path fill="none" stroke="#000000" d="M359.9802,-587.3011C359.9802,-587.3011 270.3702,-587.3011 270.3702,-587.3011 267.1365,-587.3011 263.9028,-584.0674 263.9028,-580.8337 263.9028,-580.8337 263.9028,-574.3663 263.9028,-574.3663 263.9028,-571.1326 267.1365,-567.8989 270.3702,-567.8989 270.3702,-567.8989 359.9802,-567.8989 359.9802,-567.8989 363.2139,-567.8989 366.4476,-571.1326 366.4476,-574.3663 366.4476,-574.3663 366.4476,-580.8337 366.4476,-580.8337 366.4476,-584.0674 363.2139,-587.3011 359.9802,-587.3011"/>
<text text-anchor="middle" x="315.1752" y="-574.3" font-family="Roboto Condensed, sans-serif" font-size="11.00" fill="#000000">macos&#45;version@5.2.0</text>
</g>
<!-- run&#45;jxa@2.0.0&#45;&gt;macos&#45;version@5.2.0 -->
<g id="edge10" class="edge">
<title>run&#45;jxa@2.0.0&#45;&gt;macos&#45;version@5.2.0</title>
<path fill="none" stroke="#000000" d="M207.6971,-289.9465C211.7905,-292.2325 215.5652,-295.0726 218.5583,-298.6 268.2455,-357.1565 227.7372,-395.6395 254.5583,-467.6 267.2378,-501.619 289.0655,-537.9176 302.778,-559.1402"/>
<polygon fill="#000000" stroke="#000000" points="300.0298,-561.3314 308.4453,-567.768 305.8804,-557.4883 300.0298,-561.3314"/>
</g>
<!-- execa@5.0.0 -->
<g id="node13" class="node">
<title>execa@5.0.0</title>
<path fill="none" stroke="#000000" d="M340.3695,-458.3011C340.3695,-458.3011 289.9809,-458.3011 289.9809,-458.3011 286.7472,-458.3011 283.5135,-455.0674 283.5135,-451.8337 283.5135,-451.8337 283.5135,-445.3663 283.5135,-445.3663 283.5135,-442.1326 286.7472,-438.8989 289.9809,-438.8989 289.9809,-438.8989 340.3695,-438.8989 340.3695,-438.8989 343.6032,-438.8989 346.8369,-442.1326 346.8369,-445.3663 346.8369,-445.3663 346.8369,-451.8337 346.8369,-451.8337 346.8369,-455.0674 343.6032,-458.3011 340.3695,-458.3011"/>
<text text-anchor="middle" x="315.1752" y="-445.3" font-family="Roboto Condensed, sans-serif" font-size="11.00" fill="#000000">execa@5.0.0</text>
</g>
<!-- run&#45;jxa@2.0.0&#45;&gt;execa@5.0.0 -->
<g id="edge12" class="edge">
<title>run&#45;jxa@2.0.0&#45;&gt;execa@5.0.0</title>
<path fill="none" stroke="#000000" d="M205.1754,-290.3715C209.944,-292.6256 214.5809,-295.3441 218.5583,-298.6 263.1356,-335.0912 293.9352,-397.7268 307.4492,-429.2619"/>
<polygon fill="#000000" stroke="#000000" points="304.2943,-430.7908 311.3645,-438.6815 310.7582,-428.104 304.2943,-430.7908"/>
</g>
<!-- p&#45;map@4.0.0 -->
<g id="node10" class="node">
<title>p&#45;map@4.0.0</title>
<path fill="none" stroke="#000000" d="M341.9398,-186.3011C341.9398,-186.3011 288.4106,-186.3011 288.4106,-186.3011 285.1769,-186.3011 281.9432,-183.0674 281.9432,-179.8337 281.9432,-179.8337 281.9432,-173.3663 281.9432,-173.3663 281.9432,-170.1326 285.1769,-166.8989 288.4106,-166.8989 288.4106,-166.8989 341.9398,-166.8989 341.9398,-166.8989 345.1735,-166.8989 348.4072,-170.1326 348.4072,-173.3663 348.4072,-173.3663 348.4072,-179.8337 348.4072,-179.8337 348.4072,-183.0674 345.1735,-186.3011 341.9398,-186.3011"/>
<text text-anchor="middle" x="315.1752" y="-173.3" font-family="Roboto Condensed, sans-serif" font-size="11.00" fill="#000000">p&#45;map@4.0.0</text>
</g>
<!-- p&#45;filter@2.1.0&#45;&gt;p&#45;map@4.0.0 -->
<g id="edge9" class="edge">
<title>p&#45;filter@2.1.0&#45;&gt;p&#45;map@4.0.0</title>
<path fill="none" stroke="#000000" d="M207.1235,-198.5799C226.669,-194.6039 251.294,-189.5947 272.0976,-185.3628"/>
<polygon fill="#000000" stroke="#000000" points="272.8628,-188.779 281.9644,-183.3558 271.4673,-181.9195 272.8628,-188.779"/>
</g>
<!-- xdg&#45;basedir@4.0.0 -->
<g id="node12" class="node">
<title>xdg&#45;basedir@4.0.0</title>
<path fill="none" stroke="#000000" d="M353.7621,-56.3011C353.7621,-56.3011 276.5883,-56.3011 276.5883,-56.3011 273.3546,-56.3011 270.1209,-53.0674 270.1209,-49.8337 270.1209,-49.8337 270.1209,-43.3663 270.1209,-43.3663 270.1209,-40.1326 273.3546,-36.8989 276.5883,-36.8989 276.5883,-36.8989 353.7621,-36.8989 353.7621,-36.8989 356.9958,-36.8989 360.2295,-40.1326 360.2295,-43.3663 360.2295,-43.3663 360.2295,-49.8337 360.2295,-49.8337 360.2295,-53.0674 356.9958,-56.3011 353.7621,-56.3011"/>
<text text-anchor="middle" x="315.1752" y="-43.3" font-family="Roboto Condensed, sans-serif" font-size="11.00" fill="#000000">xdg&#45;basedir@4.0.0</text>
</g>
<!-- xdg&#45;trashdir@3.1.0&#45;&gt;xdg&#45;basedir@4.0.0 -->
<g id="edge11" class="edge">
<title>xdg&#45;trashdir@3.1.0&#45;&gt;xdg&#45;basedir@4.0.0</title>
<path fill="none" stroke="#000000" d="M209.6975,-73.9753C227.4604,-69.3652 248.9361,-63.7914 267.8611,-58.8797"/>
<polygon fill="#000000" stroke="#000000" points="268.9813,-62.205 277.7813,-56.3051 267.2227,-55.4295 268.9813,-62.205"/>
</g>
<!-- user&#45;home@2.0.0 -->
<g id="node14" class="node">
<title>user&#45;home@2.0.0</title>
<path fill="none" stroke="#000000" d="M350.7633,-19.3011C350.7633,-19.3011 279.5871,-19.3011 279.5871,-19.3011 276.3534,-19.3011 273.1197,-16.0674 273.1197,-12.8337 273.1197,-12.8337 273.1197,-6.3663 273.1197,-6.3663 273.1197,-3.1326 276.3534,.1011 279.5871,.1011 279.5871,.1011 350.7633,.1011 350.7633,.1011 353.997,.1011 357.2307,-3.1326 357.2307,-6.3663 357.2307,-6.3663 357.2307,-12.8337 357.2307,-12.8337 357.2307,-16.0674 353.997,-19.3011 350.7633,-19.3011"/>
<text text-anchor="middle" x="315.1752" y="-6.3" font-family="Roboto Condensed, sans-serif" font-size="11.00" fill="#000000">user&#45;home@2.0.0</text>
</g>
<!-- xdg&#45;trashdir@3.1.0&#45;&gt;user&#45;home@2.0.0 -->
<g id="edge13" class="edge">
<title>xdg&#45;trashdir@3.1.0&#45;&gt;user&#45;home@2.0.0</title>
<path fill="none" stroke="#000000" d="M184.3803,-73.796C199.6804,-61.4786 227.6394,-40.407 254.5583,-27.6 258.3501,-25.796 262.362,-24.1293 266.4437,-22.599"/>
<polygon fill="#000000" stroke="#000000" points="267.7228,-25.86 276.0233,-19.2758 265.4285,-19.2466 267.7228,-25.86"/>
</g>
<!-- mount&#45;point@3.0.0 -->
<g id="node15" class="node">
<title>mount&#45;point@3.0.0</title>
<path fill="none" stroke="#000000" d="M354.7285,-130.3011C354.7285,-130.3011 275.6219,-130.3011 275.6219,-130.3011 272.3882,-130.3011 269.1546,-127.0674 269.1546,-123.8337 269.1546,-123.8337 269.1546,-117.3663 269.1546,-117.3663 269.1546,-114.1326 272.3882,-110.8989 275.6219,-110.8989 275.6219,-110.8989 354.7285,-110.8989 354.7285,-110.8989 357.9622,-110.8989 361.1958,-114.1326 361.1958,-117.3663 361.1958,-117.3663 361.1958,-123.8337 361.1958,-123.8337 361.1958,-127.0674 357.9622,-130.3011 354.7285,-130.3011"/>
<text text-anchor="middle" x="315.1752" y="-117.3" font-family="Roboto Condensed, sans-serif" font-size="11.00" fill="#000000">mount&#45;point@3.0.0</text>
</g>
<!-- xdg&#45;trashdir@3.1.0&#45;&gt;mount&#45;point@3.0.0 -->
<g id="edge14" class="edge">
<title>xdg&#45;trashdir@3.1.0&#45;&gt;mount&#45;point@3.0.0</title>
<path fill="none" stroke="#000000" d="M209.6975,-93.2247C227.4604,-97.8348 248.9361,-103.4086 267.8611,-108.3203"/>
<polygon fill="#000000" stroke="#000000" points="267.2227,-111.7705 277.7813,-110.8949 268.9813,-104.995 267.2227,-111.7705"/>
</g>
<!-- @sindresorhus/df@^3.1.1 -->
<g id="node16" class="node">
<title>@sindresorhus/df@^3.1.1</title>
<path fill="none" stroke="#000000" d="M369.4419,-93.3011C369.4419,-93.3011 260.9085,-93.3011 260.9085,-93.3011 257.6749,-93.3011 254.4412,-90.0674 254.4412,-86.8337 254.4412,-86.8337 254.4412,-80.3663 254.4412,-80.3663 254.4412,-77.1326 257.6749,-73.8989 260.9085,-73.8989 260.9085,-73.8989 369.4419,-73.8989 369.4419,-73.8989 372.6755,-73.8989 375.9092,-77.1326 375.9092,-80.3663 375.9092,-80.3663 375.9092,-86.8337 375.9092,-86.8337 375.9092,-90.0674 372.6755,-93.3011 369.4419,-93.3011"/>
<text text-anchor="middle" x="315.1752" y="-80.3" font-family="Roboto Condensed, sans-serif" font-size="11.00" fill="#000000">@sindresorhus/df@^3.1.1</text>
</g>
<!-- xdg&#45;trashdir@3.1.0&#45;&gt;@sindresorhus/df@^3.1.1 -->
<g id="edge15" class="edge">
<title>xdg&#45;trashdir@3.1.0&#45;&gt;@sindresorhus/df@^3.1.1</title>
<path fill="none" stroke="#000000" d="M218.5054,-83.6C226.7545,-83.6 235.5255,-83.6 244.2885,-83.6"/>
<polygon fill="#000000" stroke="#000000" points="244.5401,-87.1001 254.54,-83.6 244.54,-80.1001 244.5401,-87.1001"/>
</g>
<!-- once@1.4.0 -->
<g id="node18" class="node">
<title>once@1.4.0</title>
<path fill="none" stroke="#000000" d="M658.0597,-810.3011C658.0597,-810.3011 612.2028,-810.3011 612.2028,-810.3011 608.9691,-810.3011 605.7355,-807.0674 605.7355,-803.8337 605.7355,-803.8337 605.7355,-797.3663 605.7355,-797.3663 605.7355,-794.1326 608.9691,-790.8989 612.2028,-790.8989 612.2028,-790.8989 658.0597,-790.8989 658.0597,-790.8989 661.2934,-790.8989 664.527,-794.1326 664.527,-797.3663 664.527,-797.3663 664.527,-803.8337 664.527,-803.8337 664.527,-807.0674 661.2934,-810.3011 658.0597,-810.3011"/>
<text text-anchor="middle" x="635.1312" y="-797.3" font-family="Roboto Condensed, sans-serif" font-size="11.00" fill="#000000">once@1.4.0</text>
</g>
<!-- glob@7.1.6&#45;&gt;once@1.4.0 -->
<g id="edge17" class="edge">
<title>glob@7.1.6&#45;&gt;once@1.4.0</title>
<path fill="none" stroke="#000000" d="M321.4268,-772.4101C334.9696,-792.6237 369.2526,-838.453 411.7921,-855.6 461.7667,-875.744 480.7801,-868.7763 533.0259,-855.6 563.1622,-847.9997 594.0784,-829.5686 613.8774,-816.1311"/>
<polygon fill="#000000" stroke="#000000" points="615.9469,-818.955 622.1492,-810.3654 611.9441,-813.2124 615.9469,-818.955"/>
</g>
<!-- fs.realpath@1.0.0 -->
<g id="node20" class="node">
<title>fs.realpath@1.0.0</title>
<path fill="none" stroke="#000000" d="M508.1861,-846.3011C508.1861,-846.3011 436.6319,-846.3011 436.6319,-846.3011 433.3982,-846.3011 430.1645,-843.0674 430.1645,-839.8337 430.1645,-839.8337 430.1645,-833.3663 430.1645,-833.3663 430.1645,-830.1326 433.3982,-826.8989 436.6319,-826.8989 436.6319,-826.8989 508.1861,-826.8989 508.1861,-826.8989 511.4198,-826.8989 514.6535,-830.1326 514.6535,-833.3663 514.6535,-833.3663 514.6535,-839.8337 514.6535,-839.8337 514.6535,-843.0674 511.4198,-846.3011 508.1861,-846.3011"/>
<text text-anchor="middle" x="472.409" y="-833.3" font-family="Roboto Condensed, sans-serif" font-size="11.00" fill="#000000">fs.realpath@1.0.0</text>
</g>
<!-- glob@7.1.6&#45;&gt;fs.realpath@1.0.0 -->
<g id="edge19" class="edge">
<title>glob@7.1.6&#45;&gt;fs.realpath@1.0.0</title>
<path fill="none" stroke="#000000" d="M329.3448,-772.2559C347.6964,-784.417 380.991,-805.3236 411.7921,-818.6 415.9884,-820.4088 420.4227,-822.1052 424.9067,-823.6781"/>
<polygon fill="#000000" stroke="#000000" points="424.1358,-827.1093 434.729,-826.9194 426.3295,-820.4619 424.1358,-827.1093"/>
</g>
<!-- inherits@2.0.4 -->
<g id="node21" class="node">
<title>inherits@2.0.4</title>
<path fill="none" stroke="#000000" d="M501.565,-809.3011C501.565,-809.3011 443.253,-809.3011 443.253,-809.3011 440.0193,-809.3011 436.7856,-806.0674 436.7856,-802.8337 436.7856,-802.8337 436.7856,-796.3663 436.7856,-796.3663 436.7856,-793.1326 440.0193,-789.8989 443.253,-789.8989 443.253,-789.8989 501.565,-789.8989 501.565,-789.8989 504.7987,-789.8989 508.0324,-793.1326 508.0324,-796.3663 508.0324,-796.3663 508.0324,-802.8337 508.0324,-802.8337 508.0324,-806.0674 504.7987,-809.3011 501.565,-809.3011"/>
<text text-anchor="middle" x="472.409" y="-796.3" font-family="Roboto Condensed, sans-serif" font-size="11.00" fill="#000000">inherits@2.0.4</text>
</g>
<!-- glob@7.1.6&#45;&gt;inherits@2.0.4 -->
<g id="edge20" class="edge">
<title>glob@7.1.6&#45;&gt;inherits@2.0.4</title>
<path fill="none" stroke="#000000" d="M344.0143,-769.3864C367.1266,-774.8251 399.9896,-782.5584 426.6818,-788.8396"/>
<polygon fill="#000000" stroke="#000000" points="426.0407,-792.2842 436.5765,-791.168 427.6442,-785.4703 426.0407,-792.2842"/>
</g>
<!-- inflight@1.0.6 -->
<g id="node23" class="node">
<title>inflight@1.0.6</title>
<path fill="none" stroke="#000000" d="M500.9627,-772.3011C500.9627,-772.3011 443.8553,-772.3011 443.8553,-772.3011 440.6217,-772.3011 437.388,-769.0674 437.388,-765.8337 437.388,-765.8337 437.388,-759.3663 437.388,-759.3663 437.388,-756.1326 440.6217,-752.8989 443.8553,-752.8989 443.8553,-752.8989 500.9627,-752.8989 500.9627,-752.8989 504.1963,-752.8989 507.43,-756.1326 507.43,-759.3663 507.43,-759.3663 507.43,-765.8337 507.43,-765.8337 507.43,-769.0674 504.1963,-772.3011 500.9627,-772.3011"/>
<text text-anchor="middle" x="472.409" y="-759.3" font-family="Roboto Condensed, sans-serif" font-size="11.00" fill="#000000">inflight@1.0.6</text>
</g>
<!-- glob@7.1.6&#45;&gt;inflight@1.0.6 -->
<g id="edge22" class="edge">
<title>glob@7.1.6&#45;&gt;inflight@1.0.6</title>
<path fill="none" stroke="#000000" d="M344.0143,-762.6C367.1813,-762.6 400.1453,-762.6 426.8713,-762.6"/>
<polygon fill="#000000" stroke="#000000" points="427.1472,-766.1001 437.1471,-762.6 427.1471,-759.1001 427.1472,-766.1001"/>
</g>
<!-- minimatch@3.0.4 -->
<g id="node25" class="node">
<title>minimatch@3.0.4</title>
<path fill="none" stroke="#000000" d="M508.622,-735.3011C508.622,-735.3011 436.196,-735.3011 436.196,-735.3011 432.9623,-735.3011 429.7286,-732.0674 429.7286,-728.8337 429.7286,-728.8337 429.7286,-722.3663 429.7286,-722.3663 429.7286,-719.1326 432.9623,-715.8989 436.196,-715.8989 436.196,-715.8989 508.622,-715.8989 508.622,-715.8989 511.8557,-715.8989 515.0894,-719.1326 515.0894,-722.3663 515.0894,-722.3663 515.0894,-728.8337 515.0894,-728.8337 515.0894,-732.0674 511.8557,-735.3011 508.622,-735.3011"/>
<text text-anchor="middle" x="472.409" y="-722.3" font-family="Roboto Condensed, sans-serif" font-size="11.00" fill="#000000">minimatch@3.0.4</text>
</g>
<!-- glob@7.1.6&#45;&gt;minimatch@3.0.4 -->
<g id="edge25" class="edge">
<title>glob@7.1.6&#45;&gt;minimatch@3.0.4</title>
<path fill="none" stroke="#000000" d="M344.0143,-755.8136C365.616,-750.7304 395.7354,-743.6427 421.3734,-737.6096"/>
<polygon fill="#000000" stroke="#000000" points="422.3835,-740.9676 431.3159,-735.27 420.78,-734.1537 422.3835,-740.9676"/>
</g>
<!-- path&#45;is&#45;absolute@2.0.0 -->
<g id="node38" class="node">
<title>path&#45;is&#45;absolute@2.0.0</title>
<path fill="none" stroke="#000000" d="M520.3281,-698.3011C520.3281,-698.3011 424.4899,-698.3011 424.4899,-698.3011 421.2562,-698.3011 418.0225,-695.0674 418.0225,-691.8337 418.0225,-691.8337 418.0225,-685.3663 418.0225,-685.3663 418.0225,-682.1326 421.2562,-678.8989 424.4899,-678.8989 424.4899,-678.8989 520.3281,-678.8989 520.3281,-678.8989 523.5618,-678.8989 526.7955,-682.1326 526.7955,-685.3663 526.7955,-685.3663 526.7955,-691.8337 526.7955,-691.8337 526.7955,-695.0674 523.5618,-698.3011 520.3281,-698.3011"/>
<text text-anchor="middle" x="472.409" y="-685.3" font-family="Roboto Condensed, sans-serif" font-size="11.00" fill="#000000">path&#45;is&#45;absolute@2.0.0</text>
</g>
<!-- glob@7.1.6&#45;&gt;path&#45;is&#45;absolute@2.0.0 -->
<g id="edge38" class="edge">
<title>glob@7.1.6&#45;&gt;path&#45;is&#45;absolute@2.0.0</title>
<path fill="none" stroke="#000000" d="M329.3448,-752.9441C347.6964,-740.783 380.991,-719.8764 411.7921,-706.6 415.9884,-704.7912 420.4227,-703.0948 424.9067,-701.5219"/>
<polygon fill="#000000" stroke="#000000" points="426.3295,-704.7381 434.729,-698.2806 424.1358,-698.0907 426.3295,-704.7381"/>
</g>
<!-- unique&#45;string@2.0.0 -->
<g id="node22" class="node">
<title>unique&#45;string@2.0.0</title>
<path fill="none" stroke="#000000" d="M514.2271,-252.3011C514.2271,-252.3011 430.5909,-252.3011 430.5909,-252.3011 427.3572,-252.3011 424.1236,-249.0674 424.1236,-245.8337 424.1236,-245.8337 424.1236,-239.3663 424.1236,-239.3663 424.1236,-236.1326 427.3572,-232.8989 430.5909,-232.8989 430.5909,-232.8989 514.2271,-232.8989 514.2271,-232.8989 517.4608,-232.8989 520.6944,-236.1326 520.6944,-239.3663 520.6944,-239.3663 520.6944,-245.8337 520.6944,-245.8337 520.6944,-249.0674 517.4608,-252.3011 514.2271,-252.3011"/>
<text text-anchor="middle" x="472.409" y="-239.3" font-family="Roboto Condensed, sans-serif" font-size="11.00" fill="#000000">unique&#45;string@2.0.0</text>
</g>
<!-- subsume@3.0.0&#45;&gt;unique&#45;string@2.0.0 -->
<g id="edge21" class="edge">
<title>subsume@3.0.0&#45;&gt;unique&#45;string@2.0.0</title>
<path fill="none" stroke="#000000" d="M353.6389,-242.6C371.7606,-242.6 393.7732,-242.6 413.9007,-242.6"/>
<polygon fill="#000000" stroke="#000000" points="413.913,-246.1001 423.913,-242.6 413.9129,-239.1001 413.913,-246.1001"/>
</g>
<!-- escape&#45;string&#45;regexp@4.0.0 -->
<g id="node24" class="node">
<title>escape&#45;string&#45;regexp@4.0.0</title>
<path fill="none" stroke="#000000" d="M860.3862,-195.3011C860.3862,-195.3011 743.8315,-195.3011 743.8315,-195.3011 740.5978,-195.3011 737.3641,-192.0674 737.3641,-188.8337 737.3641,-188.8337 737.3641,-182.3663 737.3641,-182.3663 737.3641,-179.1326 740.5978,-175.8989 743.8315,-175.8989 743.8315,-175.8989 860.3862,-175.8989 860.3862,-175.8989 863.6199,-175.8989 866.8536,-179.1326 866.8536,-182.3663 866.8536,-182.3663 866.8536,-188.8337 866.8536,-188.8337 866.8536,-192.0674 863.6199,-195.3011 860.3862,-195.3011"/>
<text text-anchor="middle" x="802.1088" y="-182.3" font-family="Roboto Condensed, sans-serif" font-size="11.00" fill="#000000">escape&#45;string&#45;regexp@4.0.0</text>
</g>
<!-- subsume@3.0.0&#45;&gt;escape&#45;string&#45;regexp@4.0.0 -->
<g id="edge24" class="edge">
<title>subsume@3.0.0&#45;&gt;escape&#45;string&#45;regexp@4.0.0</title>
<path fill="none" stroke="#000000" d="M353.5796,-234.1577C371.2416,-230.5048 392.51,-226.4277 411.7921,-223.6 520.9053,-207.5984 648.2009,-196.6331 726.9876,-190.737"/>
<polygon fill="#000000" stroke="#000000" points="727.586,-194.2023 737.3003,-189.9735 727.0691,-187.2214 727.586,-194.2023"/>
</g>
<!-- aggregate&#45;error@3.1.0 -->
<g id="node19" class="node">
<title>aggregate&#45;error@3.1.0</title>
<path fill="none" stroke="#000000" d="M518.8525,-176.3011C518.8525,-176.3011 425.9655,-176.3011 425.9655,-176.3011 422.7318,-176.3011 419.4982,-173.0674 419.4982,-169.8337 419.4982,-169.8337 419.4982,-163.3663 419.4982,-163.3663 419.4982,-160.1326 422.7318,-156.8989 425.9655,-156.8989 425.9655,-156.8989 518.8525,-156.8989 518.8525,-156.8989 522.0862,-156.8989 525.3198,-160.1326 525.3198,-163.3663 525.3198,-163.3663 525.3198,-169.8337 525.3198,-169.8337 525.3198,-173.0674 522.0862,-176.3011 518.8525,-176.3011"/>
<text text-anchor="middle" x="472.409" y="-163.3" font-family="Roboto Condensed, sans-serif" font-size="11.00" fill="#000000">aggregate&#45;error@3.1.0</text>
</g>
<!-- p&#45;map@4.0.0&#45;&gt;aggregate&#45;error@3.1.0 -->
<g id="edge18" class="edge">
<title>p&#45;map@4.0.0&#45;&gt;aggregate&#45;error@3.1.0</title>
<path fill="none" stroke="#000000" d="M348.5204,-174.4793C366.1834,-173.3559 388.4711,-171.9384 409.2572,-170.6164"/>
<polygon fill="#000000" stroke="#000000" points="409.5562,-174.1046 419.3138,-169.9768 409.1118,-167.1187 409.5562,-174.1046"/>
</g>
<!-- semver@7.3.4 -->
<g id="node36" class="node">
<title>semver@7.3.4</title>
<path fill="none" stroke="#000000" d="M500.8341,-661.3011C500.8341,-661.3011 443.9839,-661.3011 443.9839,-661.3011 440.7502,-661.3011 437.5165,-658.0674 437.5165,-654.8337 437.5165,-654.8337 437.5165,-648.3663 437.5165,-648.3663 437.5165,-645.1326 440.7502,-641.8989 443.9839,-641.8989 443.9839,-641.8989 500.8341,-641.8989 500.8341,-641.8989 504.0678,-641.8989 507.3015,-645.1326 507.3015,-648.3663 507.3015,-648.3663 507.3015,-654.8337 507.3015,-654.8337 507.3015,-658.0674 504.0678,-661.3011 500.8341,-661.3011"/>
<text text-anchor="middle" x="472.409" y="-648.3" font-family="Roboto Condensed, sans-serif" font-size="11.00" fill="#000000">semver@7.3.4</text>
</g>
<!-- macos&#45;version@5.2.0&#45;&gt;semver@7.3.4 -->
<g id="edge36" class="edge">
<title>macos&#45;version@5.2.0&#45;&gt;semver@7.3.4</title>
<path fill="none" stroke="#000000" d="M329.3448,-587.2559C347.6964,-599.417 380.991,-620.3236 411.7921,-633.6 416.8328,-635.7727 422.2168,-637.7833 427.6177,-639.6123"/>
<polygon fill="#000000" stroke="#000000" points="426.6963,-642.9922 437.2872,-642.7041 428.8282,-636.3248 426.6963,-642.9922"/>
</g>
<!-- is&#45;stream@2.0.0 -->
<g id="node27" class="node">
<title>is&#45;stream@2.0.0</title>
<path fill="none" stroke="#000000" d="M505.3889,-402.3011C505.3889,-402.3011 439.4291,-402.3011 439.4291,-402.3011 436.1954,-402.3011 432.9617,-399.0674 432.9617,-395.8337 432.9617,-395.8337 432.9617,-389.3663 432.9617,-389.3663 432.9617,-386.1326 436.1954,-382.8989 439.4291,-382.8989 439.4291,-382.8989 505.3889,-382.8989 505.3889,-382.8989 508.6226,-382.8989 511.8563,-386.1326 511.8563,-389.3663 511.8563,-389.3663 511.8563,-395.8337 511.8563,-395.8337 511.8563,-399.0674 508.6226,-402.3011 505.3889,-402.3011"/>
<text text-anchor="middle" x="472.409" y="-389.3" font-family="Roboto Condensed, sans-serif" font-size="11.00" fill="#000000">is&#45;stream@2.0.0</text>
</g>
<!-- execa@5.0.0&#45;&gt;is&#45;stream@2.0.0 -->
<g id="edge27" class="edge">
<title>execa@5.0.0&#45;&gt;is&#45;stream@2.0.0</title>
<path fill="none" stroke="#000000" d="M338.0036,-438.9786C357.4519,-430.9373 386.229,-419.4042 411.7921,-410.6 417.0468,-408.7902 422.5937,-406.9923 428.1118,-405.2724"/>
<polygon fill="#000000" stroke="#000000" points="429.3992,-408.539 437.9439,-402.2749 427.3579,-401.8432 429.3992,-408.539"/>
</g>
<!-- strip&#45;final&#45;newline@2.0.0 -->
<g id="node28" class="node">
<title>strip&#45;final&#45;newline@2.0.0</title>
<path fill="none" stroke="#000000" d="M525.928,-365.3011C525.928,-365.3011 418.89,-365.3011 418.89,-365.3011 415.6563,-365.3011 412.4226,-362.0674 412.4226,-358.8337 412.4226,-358.8337 412.4226,-352.3663 412.4226,-352.3663 412.4226,-349.1326 415.6563,-345.8989 418.89,-345.8989 418.89,-345.8989 525.928,-345.8989 525.928,-345.8989 529.1617,-345.8989 532.3954,-349.1326 532.3954,-352.3663 532.3954,-352.3663 532.3954,-358.8337 532.3954,-358.8337 532.3954,-362.0674 529.1617,-365.3011 525.928,-365.3011"/>
<text text-anchor="middle" x="472.409" y="-352.3" font-family="Roboto Condensed, sans-serif" font-size="11.00" fill="#000000">strip&#45;final&#45;newline@2.0.0</text>
</g>
<!-- execa@5.0.0&#45;&gt;strip&#45;final&#45;newline@2.0.0 -->
<g id="edge28" class="edge">
<title>execa@5.0.0&#45;&gt;strip&#45;final&#45;newline@2.0.0</title>
<path fill="none" stroke="#000000" d="M325.0153,-438.8905C341.5744,-423.0582 376.6573,-391.6411 411.7921,-373.6 415.2635,-371.8175 418.9396,-370.1829 422.6966,-368.6896"/>
<polygon fill="#000000" stroke="#000000" points="423.9261,-371.9669 432.1318,-365.2648 421.5376,-365.387 423.9261,-371.9669"/>
</g>
<!-- merge&#45;stream@2.0.0 -->
<g id="node29" class="node">
<title>merge&#45;stream@2.0.0</title>
<path fill="none" stroke="#000000" d="M515.0383,-328.3011C515.0383,-328.3011 429.7797,-328.3011 429.7797,-328.3011 426.5461,-328.3011 423.3124,-325.0674 423.3124,-321.8337 423.3124,-321.8337 423.3124,-315.3663 423.3124,-315.3663 423.3124,-312.1326 426.5461,-308.8989 429.7797,-308.8989 429.7797,-308.8989 515.0383,-308.8989 515.0383,-308.8989 518.2719,-308.8989 521.5056,-312.1326 521.5056,-315.3663 521.5056,-315.3663 521.5056,-321.8337 521.5056,-321.8337 521.5056,-325.0674 518.2719,-328.3011 515.0383,-328.3011"/>
<text text-anchor="middle" x="472.409" y="-315.3" font-family="Roboto Condensed, sans-serif" font-size="11.00" fill="#000000">merge&#45;stream@2.0.0</text>
</g>
<!-- execa@5.0.0&#45;&gt;merge&#45;stream@2.0.0 -->
<g id="edge29" class="edge">
<title>execa@5.0.0&#45;&gt;merge&#45;stream@2.0.0</title>
<path fill="none" stroke="#000000" d="M320.8304,-438.869C333.9511,-417.1571 368.659,-364.4805 411.7921,-336.6 414.2122,-335.0357 416.7734,-333.6029 419.4212,-332.2911"/>
<polygon fill="#000000" stroke="#000000" points="420.893,-335.4679 428.6786,-328.2821 418.1112,-329.0444 420.893,-335.4679"/>
</g>
<!-- cross&#45;spawn@7.0.3 -->
<g id="node30" class="node">
<title>cross&#45;spawn@7.0.3</title>
<path fill="none" stroke="#000000" d="M512.4371,-624.3011C512.4371,-624.3011 432.3809,-624.3011 432.3809,-624.3011 429.1473,-624.3011 425.9136,-621.0674 425.9136,-617.8337 425.9136,-617.8337 425.9136,-611.3663 425.9136,-611.3663 425.9136,-608.1326 429.1473,-604.8989 432.3809,-604.8989 432.3809,-604.8989 512.4371,-604.8989 512.4371,-604.8989 515.6707,-604.8989 518.9044,-608.1326 518.9044,-611.3663 518.9044,-611.3663 518.9044,-617.8337 518.9044,-617.8337 518.9044,-621.0674 515.6707,-624.3011 512.4371,-624.3011"/>
<text text-anchor="middle" x="472.409" y="-611.3" font-family="Roboto Condensed, sans-serif" font-size="11.00" fill="#000000">cross&#45;spawn@7.0.3</text>
</g>
<!-- execa@5.0.0&#45;&gt;cross&#45;spawn@7.0.3 -->
<g id="edge30" class="edge">
<title>execa@5.0.0&#45;&gt;cross&#45;spawn@7.0.3</title>
<path fill="none" stroke="#000000" d="M320.4454,-458.4906C336.5687,-488.4209 385.7138,-577.1613 411.7921,-596.6 413.6157,-597.9593 415.5412,-599.2165 417.5401,-600.3792"/>
<polygon fill="#000000" stroke="#000000" points="416.1703,-603.6062 426.6864,-604.8954 419.2695,-597.3297 416.1703,-603.6062"/>
</g>
<!-- get&#45;stream@6.0.0 -->
<g id="node31" class="node">
<title>get&#45;stream@6.0.0</title>
<path fill="none" stroke="#000000" d="M507.9938,-587.3011C507.9938,-587.3011 436.8242,-587.3011 436.8242,-587.3011 433.5905,-587.3011 430.3568,-584.0674 430.3568,-580.8337 430.3568,-580.8337 430.3568,-574.3663 430.3568,-574.3663 430.3568,-571.1326 433.5905,-567.8989 436.8242,-567.8989 436.8242,-567.8989 507.9938,-567.8989 507.9938,-567.8989 511.2275,-567.8989 514.4612,-571.1326 514.4612,-574.3663 514.4612,-574.3663 514.4612,-580.8337 514.4612,-580.8337 514.4612,-584.0674 511.2275,-587.3011 507.9938,-587.3011"/>
<text text-anchor="middle" x="472.409" y="-574.3" font-family="Roboto Condensed, sans-serif" font-size="11.00" fill="#000000">get&#45;stream@6.0.0</text>
</g>
<!-- execa@5.0.0&#45;&gt;get&#45;stream@6.0.0 -->
<g id="edge31" class="edge">
<title>execa@5.0.0&#45;&gt;get&#45;stream@6.0.0</title>
<path fill="none" stroke="#000000" d="M320.8532,-458.2425C334.0206,-479.7573 368.818,-531.9573 411.7921,-559.6 414.6961,-561.468 417.8016,-563.1487 421.0151,-564.6599"/>
<polygon fill="#000000" stroke="#000000" points="419.7014,-567.904 430.2804,-568.4849 422.3727,-561.4337 419.7014,-567.904"/>
</g>
<!-- onetime@5.1.2 -->
<g id="node32" class="node">
<title>onetime@5.1.2</title>
<path fill="none" stroke="#000000" d="M502.5093,-439.3011C502.5093,-439.3011 442.3087,-439.3011 442.3087,-439.3011 439.075,-439.3011 435.8413,-436.0674 435.8413,-432.8337 435.8413,-432.8337 435.8413,-426.3663 435.8413,-426.3663 435.8413,-423.1326 439.075,-419.8989 442.3087,-419.8989 442.3087,-419.8989 502.5093,-419.8989 502.5093,-419.8989 505.743,-419.8989 508.9767,-423.1326 508.9767,-426.3663 508.9767,-426.3663 508.9767,-432.8337 508.9767,-432.8337 508.9767,-436.0674 505.743,-439.3011 502.5093,-439.3011"/>
<text text-anchor="middle" x="472.409" y="-426.3" font-family="Roboto Condensed, sans-serif" font-size="11.00" fill="#000000">onetime@5.1.2</text>
</g>
<!-- execa@5.0.0&#45;&gt;onetime@5.1.2 -->
<g id="edge32" class="edge">
<title>execa@5.0.0&#45;&gt;onetime@5.1.2</title>
<path fill="none" stroke="#000000" d="M346.9938,-444.7551C369.5502,-442.0294 400.1876,-438.3272 425.5345,-435.2643"/>
<polygon fill="#000000" stroke="#000000" points="426.1671,-438.7134 435.6749,-434.0389 425.3272,-431.7639 426.1671,-438.7134"/>
</g>
<!-- signal&#45;exit@3.0.3 -->
<g id="node35" class="node">
<title>signal&#45;exit@3.0.3</title>
<path fill="none" stroke="#000000" d="M508.0059,-513.3011C508.0059,-513.3011 436.8121,-513.3011 436.8121,-513.3011 433.5785,-513.3011 430.3448,-510.0674 430.3448,-506.8337 430.3448,-506.8337 430.3448,-500.3663 430.3448,-500.3663 430.3448,-497.1326 433.5785,-493.8989 436.8121,-493.8989 436.8121,-493.8989 508.0059,-493.8989 508.0059,-493.8989 511.2395,-493.8989 514.4732,-497.1326 514.4732,-500.3663 514.4732,-500.3663 514.4732,-506.8337 514.4732,-506.8337 514.4732,-510.0674 511.2395,-513.3011 508.0059,-513.3011"/>
<text text-anchor="middle" x="472.409" y="-500.3" font-family="Roboto Condensed, sans-serif" font-size="11.00" fill="#000000">signal&#45;exit@3.0.3</text>
</g>
<!-- execa@5.0.0&#45;&gt;signal&#45;exit@3.0.3 -->
<g id="edge35" class="edge">
<title>execa@5.0.0&#45;&gt;signal&#45;exit@3.0.3</title>
<path fill="none" stroke="#000000" d="M338.8127,-458.2377C358.2602,-466.025 386.6191,-477.0566 411.7921,-485.6 417.1198,-487.4082 422.7438,-489.2138 428.3319,-490.9454"/>
<polygon fill="#000000" stroke="#000000" points="427.6943,-494.4095 438.2799,-493.9669 429.7287,-487.7117 427.6943,-494.4095"/>
</g>
<!-- human&#45;signals@2.1.0 -->
<g id="node37" class="node">
<title>human&#45;signals@2.1.0</title>
<path fill="none" stroke="#000000" d="M517.2261,-476.3011C517.2261,-476.3011 427.5919,-476.3011 427.5919,-476.3011 424.3582,-476.3011 421.1245,-473.0674 421.1245,-469.8337 421.1245,-469.8337 421.1245,-463.3663 421.1245,-463.3663 421.1245,-460.1326 424.3582,-456.8989 427.5919,-456.8989 427.5919,-456.8989 517.2261,-456.8989 517.2261,-456.8989 520.4598,-456.8989 523.6935,-460.1326 523.6935,-463.3663 523.6935,-463.3663 523.6935,-469.8337 523.6935,-469.8337 523.6935,-473.0674 520.4598,-476.3011 517.2261,-476.3011"/>
<text text-anchor="middle" x="472.409" y="-463.3" font-family="Roboto Condensed, sans-serif" font-size="11.00" fill="#000000">human&#45;signals@2.1.0</text>
</g>
<!-- execa@5.0.0&#45;&gt;human&#45;signals@2.1.0 -->
<g id="edge37" class="edge">
<title>execa@5.0.0&#45;&gt;human&#45;signals@2.1.0</title>
<path fill="none" stroke="#000000" d="M346.9938,-452.2426C365.3533,-454.3444 389.0665,-457.059 410.923,-459.5611"/>
<polygon fill="#000000" stroke="#000000" points="410.8057,-463.0705 421.1389,-460.7306 411.6019,-456.1159 410.8057,-463.0705"/>
</g>
<!-- npm&#45;run&#45;path@4.0.1 -->
<g id="node39" class="node">
<title>npm&#45;run&#45;path@4.0.1</title>
<path fill="none" stroke="#000000" d="M515.0547,-550.3011C515.0547,-550.3011 429.7633,-550.3011 429.7633,-550.3011 426.5296,-550.3011 423.2959,-547.0674 423.2959,-543.8337 423.2959,-543.8337 423.2959,-537.3663 423.2959,-537.3663 423.2959,-534.1326 426.5296,-530.8989 429.7633,-530.8989 429.7633,-530.8989 515.0547,-530.8989 515.0547,-530.8989 518.2884,-530.8989 521.5221,-534.1326 521.5221,-537.3663 521.5221,-537.3663 521.5221,-543.8337 521.5221,-543.8337 521.5221,-547.0674 518.2884,-550.3011 515.0547,-550.3011"/>
<text text-anchor="middle" x="472.409" y="-537.3" font-family="Roboto Condensed, sans-serif" font-size="11.00" fill="#000000">npm&#45;run&#45;path@4.0.1</text>
</g>
<!-- execa@5.0.0&#45;&gt;npm&#45;run&#45;path@4.0.1 -->
<g id="edge39" class="edge">
<title>execa@5.0.0&#45;&gt;npm&#45;run&#45;path@4.0.1</title>
<path fill="none" stroke="#000000" d="M325.311,-458.4248C342.0163,-474.1138 376.9629,-504.8584 411.7921,-522.6 415.2693,-524.3712 418.9496,-525.9976 422.7095,-527.4853"/>
<polygon fill="#000000" stroke="#000000" points="421.5551,-530.7896 432.1494,-530.9008 423.9368,-524.2072 421.5551,-530.7896"/>
</g>
<!-- os&#45;homedir@2.0.0 -->
<g id="node26" class="node">
<title>os&#45;homedir@2.0.0</title>
<path fill="none" stroke="#000000" d="M510.1702,-19.3011C510.1702,-19.3011 434.6478,-19.3011 434.6478,-19.3011 431.4141,-19.3011 428.1804,-16.0674 428.1804,-12.8337 428.1804,-12.8337 428.1804,-6.3663 428.1804,-6.3663 428.1804,-3.1326 431.4141,.1011 434.6478,.1011 434.6478,.1011 510.1702,.1011 510.1702,.1011 513.4039,.1011 516.6376,-3.1326 516.6376,-6.3663 516.6376,-6.3663 516.6376,-12.8337 516.6376,-12.8337 516.6376,-16.0674 513.4039,-19.3011 510.1702,-19.3011"/>
<text text-anchor="middle" x="472.409" y="-6.3" font-family="Roboto Condensed, sans-serif" font-size="11.00" fill="#000000">os&#45;homedir@2.0.0</text>
</g>
<!-- user&#45;home@2.0.0&#45;&gt;os&#45;homedir@2.0.0 -->
<g id="edge26" class="edge">
<title>user&#45;home@2.0.0&#45;&gt;os&#45;homedir@2.0.0</title>
<path fill="none" stroke="#000000" d="M357.311,-9.6C375.9796,-9.6 398.1747,-9.6 418.0698,-9.6"/>
<polygon fill="#000000" stroke="#000000" points="418.2331,-13.1001 428.2331,-9.6 418.2331,-6.1001 418.2331,-13.1001"/>
</g>
<!-- @sindresorhus/df@^1.0.1 -->
<g id="node17" class="node">
<title>@sindresorhus/df@^1.0.1</title>
<path fill="none" stroke="#000000" d="M526.6757,-139.3011C526.6757,-139.3011 418.1423,-139.3011 418.1423,-139.3011 414.9087,-139.3011 411.675,-136.0674 411.675,-132.8337 411.675,-132.8337 411.675,-126.3663 411.675,-126.3663 411.675,-123.1326 414.9087,-119.8989 418.1423,-119.8989 418.1423,-119.8989 526.6757,-119.8989 526.6757,-119.8989 529.9093,-119.8989 533.143,-123.1326 533.143,-126.3663 533.143,-126.3663 533.143,-132.8337 533.143,-132.8337 533.143,-136.0674 529.9093,-139.3011 526.6757,-139.3011"/>
<text text-anchor="middle" x="472.409" y="-126.3" font-family="Roboto Condensed, sans-serif" font-size="11.00" fill="#000000">@sindresorhus/df@^1.0.1</text>
</g>
<!-- mount&#45;point@3.0.0&#45;&gt;@sindresorhus/df@^1.0.1 -->
<g id="edge16" class="edge">
<title>mount&#45;point@3.0.0&#45;&gt;@sindresorhus/df@^1.0.1</title>
<path fill="none" stroke="#000000" d="M361.5001,-123.2516C373.9882,-123.9664 387.7922,-124.7566 401.2979,-125.5296"/>
<polygon fill="#000000" stroke="#000000" points="401.3573,-129.0387 411.541,-126.1159 401.7573,-122.0501 401.3573,-129.0387"/>
</g>
<!-- pify@5.0.0 -->
<g id="node33" class="node">
<title>pify@5.0.0</title>
<path fill="none" stroke="#000000" d="M493.7905,-102.3011C493.7905,-102.3011 451.0275,-102.3011 451.0275,-102.3011 447.7938,-102.3011 444.5601,-99.0674 444.5601,-95.8337 444.5601,-95.8337 444.5601,-89.3663 444.5601,-89.3663 444.5601,-86.1326 447.7938,-82.8989 451.0275,-82.8989 451.0275,-82.8989 493.7905,-82.8989 493.7905,-82.8989 497.0242,-82.8989 500.2579,-86.1326 500.2579,-89.3663 500.2579,-89.3663 500.2579,-95.8337 500.2579,-95.8337 500.2579,-99.0674 497.0242,-102.3011 493.7905,-102.3011"/>
<text text-anchor="middle" x="472.409" y="-89.3" font-family="Roboto Condensed, sans-serif" font-size="11.00" fill="#000000">pify@5.0.0</text>
</g>
<!-- mount&#45;point@3.0.0&#45;&gt;pify@5.0.0 -->
<g id="edge33" class="edge">
<title>mount&#45;point@3.0.0&#45;&gt;pify@5.0.0</title>
<path fill="none" stroke="#000000" d="M361.5001,-112.3505C384.6477,-108.2284 412.3158,-103.3013 434.2266,-99.3995"/>
<polygon fill="#000000" stroke="#000000" points="434.9311,-102.8292 444.1626,-97.6301 433.7038,-95.9376 434.9311,-102.8292"/>
</g>
<!-- pinkie&#45;promise@2.0.1 -->
<g id="node34" class="node">
<title>pinkie&#45;promise@2.0.1</title>
<path fill="none" stroke="#000000" d="M518.167,-65.3011C518.167,-65.3011 426.651,-65.3011 426.651,-65.3011 423.4173,-65.3011 420.1836,-62.0674 420.1836,-58.8337 420.1836,-58.8337 420.1836,-52.3663 420.1836,-52.3663 420.1836,-49.1326 423.4173,-45.8989 426.651,-45.8989 426.651,-45.8989 518.167,-45.8989 518.167,-45.8989 521.4007,-45.8989 524.6344,-49.1326 524.6344,-52.3663 524.6344,-52.3663 524.6344,-58.8337 524.6344,-58.8337 524.6344,-62.0674 521.4007,-65.3011 518.167,-65.3011"/>
<text text-anchor="middle" x="472.409" y="-52.3" font-family="Roboto Condensed, sans-serif" font-size="11.00" fill="#000000">pinkie&#45;promise@2.0.1</text>
</g>
<!-- mount&#45;point@3.0.0&#45;&gt;pinkie&#45;promise@2.0.1 -->
<g id="edge34" class="edge">
<title>mount&#45;point@3.0.0&#45;&gt;pinkie&#45;promise@2.0.1</title>
<path fill="none" stroke="#000000" d="M355.8229,-110.923C362.6722,-108.6232 369.5712,-105.8655 375.7921,-102.6 393.9837,-93.0508 393.6005,-83.1492 411.7921,-73.6 415.097,-71.8652 418.5932,-70.2737 422.1717,-68.8181"/>
<polygon fill="#000000" stroke="#000000" points="423.5928,-72.0244 431.7613,-65.277 421.168,-65.4577 423.5928,-72.0244"/>
</g>
<!-- wrappy@1.0.2 -->
<g id="node41" class="node">
<title>wrappy@1.0.2</title>
<path fill="none" stroke="#000000" d="M831.2572,-791.3011C831.2572,-791.3011 772.9605,-791.3011 772.9605,-791.3011 769.7268,-791.3011 766.4932,-788.0674 766.4932,-784.8337 766.4932,-784.8337 766.4932,-778.3663 766.4932,-778.3663 766.4932,-775.1326 769.7268,-771.8989 772.9605,-771.8989 772.9605,-771.8989 831.2572,-771.8989 831.2572,-771.8989 834.4909,-771.8989 837.7245,-775.1326 837.7245,-778.3663 837.7245,-778.3663 837.7245,-784.8337 837.7245,-784.8337 837.7245,-788.0674 834.4909,-791.3011 831.2572,-791.3011"/>
<text text-anchor="middle" x="802.1088" y="-778.3" font-family="Roboto Condensed, sans-serif" font-size="11.00" fill="#000000">wrappy@1.0.2</text>
</g>
<!-- once@1.4.0&#45;&gt;wrappy@1.0.2 -->
<g id="edge42" class="edge">
<title>once@1.4.0&#45;&gt;wrappy@1.0.2</title>
<path fill="none" stroke="#000000" d="M664.5991,-797.2469C689.9755,-794.3594 727.0206,-790.1441 756.2685,-786.8161"/>
<polygon fill="#000000" stroke="#000000" points="756.7166,-790.2878 766.2567,-785.6795 755.9251,-783.3326 756.7166,-790.2878"/>
</g>
<!-- clean&#45;stack@3.0.1 -->
<g id="node40" class="node">
<title>clean&#45;stack@3.0.1</title>
<path fill="none" stroke="#000000" d="M672.2628,-176.3011C672.2628,-176.3011 597.9997,-176.3011 597.9997,-176.3011 594.766,-176.3011 591.5323,-173.0674 591.5323,-169.8337 591.5323,-169.8337 591.5323,-163.3663 591.5323,-163.3663 591.5323,-160.1326 594.766,-156.8989 597.9997,-156.8989 597.9997,-156.8989 672.2628,-156.8989 672.2628,-156.8989 675.4965,-156.8989 678.7302,-160.1326 678.7302,-163.3663 678.7302,-163.3663 678.7302,-169.8337 678.7302,-169.8337 678.7302,-173.0674 675.4965,-176.3011 672.2628,-176.3011"/>
<text text-anchor="middle" x="635.1312" y="-163.3" font-family="Roboto Condensed, sans-serif" font-size="11.00" fill="#000000">clean&#45;stack@3.0.1</text>
</g>
<!-- aggregate&#45;error@3.1.0&#45;&gt;clean&#45;stack@3.0.1 -->
<g id="edge40" class="edge">
<title>aggregate&#45;error@3.1.0&#45;&gt;clean&#45;stack@3.0.1</title>
<path fill="none" stroke="#000000" d="M525.6904,-166.6C543.5945,-166.6 563.5664,-166.6 581.4975,-166.6"/>
<polygon fill="#000000" stroke="#000000" points="581.5047,-170.1001 591.5046,-166.6 581.5046,-163.1001 581.5047,-170.1001"/>
</g>
<!-- indent&#45;string@4.0.0 -->
<g id="node47" class="node">
<title>indent&#45;string@4.0.0</title>
<path fill="none" stroke="#000000" d="M676.0066,-139.3011C676.0066,-139.3011 594.2559,-139.3011 594.2559,-139.3011 591.0222,-139.3011 587.7885,-136.0674 587.7885,-132.8337 587.7885,-132.8337 587.7885,-126.3663 587.7885,-126.3663 587.7885,-123.1326 591.0222,-119.8989 594.2559,-119.8989 594.2559,-119.8989 676.0066,-119.8989 676.0066,-119.8989 679.2403,-119.8989 682.474,-123.1326 682.474,-126.3663 682.474,-126.3663 682.474,-132.8337 682.474,-132.8337 682.474,-136.0674 679.2403,-139.3011 676.0066,-139.3011"/>
<text text-anchor="middle" x="635.1312" y="-126.3" font-family="Roboto Condensed, sans-serif" font-size="11.00" fill="#000000">indent&#45;string@4.0.0</text>
</g>
<!-- aggregate&#45;error@3.1.0&#45;&gt;indent&#45;string@4.0.0 -->
<g id="edge51" class="edge">
<title>aggregate&#45;error@3.1.0&#45;&gt;indent&#45;string@4.0.0</title>
<path fill="none" stroke="#000000" d="M514.7376,-156.9753C535.5611,-152.2404 560.8553,-146.489 582.8739,-141.4823"/>
<polygon fill="#000000" stroke="#000000" points="583.7572,-144.8709 592.7322,-139.2407 582.2051,-138.0452 583.7572,-144.8709"/>
</g>
<!-- crypto&#45;random&#45;string@3.3.0 -->
<g id="node42" class="node">
<title>crypto&#45;random&#45;string@3.3.0</title>
<path fill="none" stroke="#000000" d="M694.8747,-252.3011C694.8747,-252.3011 575.3878,-252.3011 575.3878,-252.3011 572.1541,-252.3011 568.9204,-249.0674 568.9204,-245.8337 568.9204,-245.8337 568.9204,-239.3663 568.9204,-239.3663 568.9204,-236.1326 572.1541,-232.8989 575.3878,-232.8989 575.3878,-232.8989 694.8747,-232.8989 694.8747,-232.8989 698.1084,-232.8989 701.3421,-236.1326 701.3421,-239.3663 701.3421,-239.3663 701.3421,-245.8337 701.3421,-245.8337 701.3421,-249.0674 698.1084,-252.3011 694.8747,-252.3011"/>
<text text-anchor="middle" x="635.1312" y="-239.3" font-family="Roboto Condensed, sans-serif" font-size="11.00" fill="#000000">crypto&#45;random&#45;string@3.3.0</text>
</g>
<!-- unique&#45;string@2.0.0&#45;&gt;crypto&#45;random&#45;string@3.3.0 -->
<g id="edge44" class="edge">
<title>unique&#45;string@2.0.0&#45;&gt;crypto&#45;random&#45;string@3.3.0</title>
<path fill="none" stroke="#000000" d="M520.7905,-242.6C532.692,-242.6 545.7268,-242.6 558.5998,-242.6"/>
<polygon fill="#000000" stroke="#000000" points="558.8643,-246.1001 568.8643,-242.6 558.8643,-239.1001 558.8643,-246.1001"/>
</g>
<!-- inflight@1.0.6&#45;&gt;once@1.4.0 -->
<g id="edge23" class="edge">
<title>inflight@1.0.6&#45;&gt;once@1.4.0</title>
<path fill="none" stroke="#000000" d="M507.7173,-770.8454C533.6599,-776.9037 568.917,-785.1372 595.767,-791.4074"/>
<polygon fill="#000000" stroke="#000000" points="595.075,-794.8399 605.609,-793.7058 596.6669,-788.0233 595.075,-794.8399"/>
</g>
<!-- inflight@1.0.6&#45;&gt;wrappy@1.0.2 -->
<g id="edge43" class="edge">
<title>inflight@1.0.6&#45;&gt;wrappy@1.0.2</title>
<path fill="none" stroke="#000000" d="M507.6927,-764.6333C567.6128,-768.0864 689.2296,-775.095 755.8733,-778.9355"/>
<polygon fill="#000000" stroke="#000000" points="755.8946,-782.4425 766.0794,-779.5237 756.2973,-775.4541 755.8946,-782.4425"/>
</g>
<!-- brace&#45;expansion@2.0.0 -->
<g id="node43" class="node">
<title>brace&#45;expansion@2.0.0</title>
<path fill="none" stroke="#000000" d="M683.8671,-734.3011C683.8671,-734.3011 586.3954,-734.3011 586.3954,-734.3011 583.1617,-734.3011 579.9281,-731.0674 579.9281,-727.8337 579.9281,-727.8337 579.9281,-721.3663 579.9281,-721.3663 579.9281,-718.1326 583.1617,-714.8989 586.3954,-714.8989 586.3954,-714.8989 683.8671,-714.8989 683.8671,-714.8989 687.1008,-714.8989 690.3344,-718.1326 690.3344,-721.3663 690.3344,-721.3663 690.3344,-727.8337 690.3344,-727.8337 690.3344,-731.0674 687.1008,-734.3011 683.8671,-734.3011"/>
<text text-anchor="middle" x="635.1312" y="-721.3" font-family="Roboto Condensed, sans-serif" font-size="11.00" fill="#000000">brace&#45;expansion@2.0.0</text>
</g>
<!-- minimatch@3.0.4&#45;&gt;brace&#45;expansion@2.0.0 -->
<g id="edge46" class="edge">
<title>minimatch@3.0.4&#45;&gt;brace&#45;expansion@2.0.0</title>
<path fill="none" stroke="#000000" d="M515.1624,-725.3373C531.847,-725.2347 551.3515,-725.1149 569.7259,-725.0019"/>
<polygon fill="#000000" stroke="#000000" points="569.8143,-728.5016 579.7926,-724.9401 569.7712,-721.5017 569.8143,-728.5016"/>
</g>
<!-- path&#45;key@3.1.1 -->
<g id="node44" class="node">
<title>path&#45;key@3.1.1</title>
<path fill="none" stroke="#000000" d="M666.7793,-550.3011C666.7793,-550.3011 603.4832,-550.3011 603.4832,-550.3011 600.2495,-550.3011 597.0158,-547.0674 597.0158,-543.8337 597.0158,-543.8337 597.0158,-537.3663 597.0158,-537.3663 597.0158,-534.1326 600.2495,-530.8989 603.4832,-530.8989 603.4832,-530.8989 666.7793,-530.8989 666.7793,-530.8989 670.013,-530.8989 673.2467,-534.1326 673.2467,-537.3663 673.2467,-537.3663 673.2467,-543.8337 673.2467,-543.8337 673.2467,-547.0674 670.013,-550.3011 666.7793,-550.3011"/>
<text text-anchor="middle" x="635.1312" y="-537.3" font-family="Roboto Condensed, sans-serif" font-size="11.00" fill="#000000">path&#45;key@3.1.1</text>
</g>
<!-- cross&#45;spawn@7.0.3&#45;&gt;path&#45;key@3.1.1 -->
<g id="edge47" class="edge">
<title>cross&#45;spawn@7.0.3&#45;&gt;path&#45;key@3.1.1</title>
<path fill="none" stroke="#000000" d="M515.363,-604.931C521.5204,-602.6765 527.5995,-599.931 533.0259,-596.6 552.8529,-584.4293 549.0614,-570.5438 569.0259,-558.6 574.5857,-555.2738 580.7722,-552.5482 587.067,-550.3182"/>
<polygon fill="#000000" stroke="#000000" points="588.482,-553.5424 596.9736,-547.2066 586.3843,-546.8641 588.482,-553.5424"/>
</g>
<!-- shebang&#45;command@2.0.0 -->
<g id="node45" class="node">
<title>shebang&#45;command@2.0.0</title>
<path fill="none" stroke="#000000" d="M689.3792,-624.3011C689.3792,-624.3011 580.8833,-624.3011 580.8833,-624.3011 577.6496,-624.3011 574.416,-621.0674 574.416,-617.8337 574.416,-617.8337 574.416,-611.3663 574.416,-611.3663 574.416,-608.1326 577.6496,-604.8989 580.8833,-604.8989 580.8833,-604.8989 689.3792,-604.8989 689.3792,-604.8989 692.6129,-604.8989 695.8465,-608.1326 695.8465,-611.3663 695.8465,-611.3663 695.8465,-617.8337 695.8465,-617.8337 695.8465,-621.0674 692.6129,-624.3011 689.3792,-624.3011"/>
<text text-anchor="middle" x="635.1312" y="-611.3" font-family="Roboto Condensed, sans-serif" font-size="11.00" fill="#000000">shebang&#45;command@2.0.0</text>
</g>
<!-- cross&#45;spawn@7.0.3&#45;&gt;shebang&#45;command@2.0.0 -->
<g id="edge49" class="edge">
<title>cross&#45;spawn@7.0.3&#45;&gt;shebang&#45;command@2.0.0</title>
<path fill="none" stroke="#000000" d="M519.0387,-614.6C533.2139,-614.6 549.1206,-614.6 564.5061,-614.6"/>
<polygon fill="#000000" stroke="#000000" points="564.5178,-618.1001 574.5178,-614.6 564.5178,-611.1001 564.5178,-618.1001"/>
</g>
<!-- which@2.0.2 -->
<g id="node46" class="node">
<title>which@2.0.2</title>
<path fill="none" stroke="#000000" d="M661.1745,-587.3011C661.1745,-587.3011 609.088,-587.3011 609.088,-587.3011 605.8543,-587.3011 602.6206,-584.0674 602.6206,-580.8337 602.6206,-580.8337 602.6206,-574.3663 602.6206,-574.3663 602.6206,-571.1326 605.8543,-567.8989 609.088,-567.8989 609.088,-567.8989 661.1745,-567.8989 661.1745,-567.8989 664.4082,-567.8989 667.6419,-571.1326 667.6419,-574.3663 667.6419,-574.3663 667.6419,-580.8337 667.6419,-580.8337 667.6419,-584.0674 664.4082,-587.3011 661.1745,-587.3011"/>
<text text-anchor="middle" x="635.1312" y="-574.3" font-family="Roboto Condensed, sans-serif" font-size="11.00" fill="#000000">which@2.0.2</text>
</g>
<!-- cross&#45;spawn@7.0.3&#45;&gt;which@2.0.2 -->
<g id="edge50" class="edge">
<title>cross&#45;spawn@7.0.3&#45;&gt;which@2.0.2</title>
<path fill="none" stroke="#000000" d="M514.7376,-604.9753C538.715,-599.5232 568.6198,-592.7235 592.6262,-587.2649"/>
<polygon fill="#000000" stroke="#000000" points="593.544,-590.6456 602.5191,-585.0154 591.9919,-583.8198 593.544,-590.6456"/>
</g>
<!-- mimic&#45;fn@3.1.0 -->
<g id="node50" class="node">
<title>mimic&#45;fn@3.1.0</title>
<path fill="none" stroke="#000000" d="M668.2281,-439.3011C668.2281,-439.3011 602.0344,-439.3011 602.0344,-439.3011 598.8007,-439.3011 595.567,-436.0674 595.567,-432.8337 595.567,-432.8337 595.567,-426.3663 595.567,-426.3663 595.567,-423.1326 598.8007,-419.8989 602.0344,-419.8989 602.0344,-419.8989 668.2281,-419.8989 668.2281,-419.8989 671.4618,-419.8989 674.6955,-423.1326 674.6955,-426.3663 674.6955,-426.3663 674.6955,-432.8337 674.6955,-432.8337 674.6955,-436.0674 671.4618,-439.3011 668.2281,-439.3011"/>
<text text-anchor="middle" x="635.1312" y="-426.3" font-family="Roboto Condensed, sans-serif" font-size="11.00" fill="#000000">mimic&#45;fn@3.1.0</text>
</g>
<!-- onetime@5.1.2&#45;&gt;mimic&#45;fn@3.1.0 -->
<g id="edge54" class="edge">
<title>onetime@5.1.2&#45;&gt;mimic&#45;fn@3.1.0</title>
<path fill="none" stroke="#000000" d="M509.3332,-429.6C531.8144,-429.6 560.825,-429.6 585.3207,-429.6"/>
<polygon fill="#000000" stroke="#000000" points="585.5103,-433.1001 595.5102,-429.6 585.5102,-426.1001 585.5103,-433.1001"/>
</g>
<!-- pinkie@2.0.4 -->
<g id="node48" class="node">
<title>pinkie@2.0.4</title>
<path fill="none" stroke="#000000" d="M661.2915,-65.3011C661.2915,-65.3011 608.971,-65.3011 608.971,-65.3011 605.7373,-65.3011 602.5036,-62.0674 602.5036,-58.8337 602.5036,-58.8337 602.5036,-52.3663 602.5036,-52.3663 602.5036,-49.1326 605.7373,-45.8989 608.971,-45.8989 608.971,-45.8989 661.2915,-45.8989 661.2915,-45.8989 664.5252,-45.8989 667.7589,-49.1326 667.7589,-52.3663 667.7589,-52.3663 667.7589,-58.8337 667.7589,-58.8337 667.7589,-62.0674 664.5252,-65.3011 661.2915,-65.3011"/>
<text text-anchor="middle" x="635.1312" y="-52.3" font-family="Roboto Condensed, sans-serif" font-size="11.00" fill="#000000">pinkie@2.0.4</text>
</g>
<!-- pinkie&#45;promise@2.0.1&#45;&gt;pinkie@2.0.4 -->
<g id="edge52" class="edge">
<title>pinkie&#45;promise@2.0.1&#45;&gt;pinkie@2.0.4</title>
<path fill="none" stroke="#000000" d="M524.791,-55.6C546.5685,-55.6 571.5323,-55.6 592.2006,-55.6"/>
<polygon fill="#000000" stroke="#000000" points="592.2724,-59.1001 602.2724,-55.6 592.2723,-52.1001 592.2724,-59.1001"/>
</g>
<!-- lru&#45;cache@6.0.0 -->
<g id="node49" class="node">
<title>lru&#45;cache@6.0.0</title>
<path fill="none" stroke="#000000" d="M668.2061,-661.3011C668.2061,-661.3011 602.0564,-661.3011 602.0564,-661.3011 598.8227,-661.3011 595.589,-658.0674 595.589,-654.8337 595.589,-654.8337 595.589,-648.3663 595.589,-648.3663 595.589,-645.1326 598.8227,-641.8989 602.0564,-641.8989 602.0564,-641.8989 668.2061,-641.8989 668.2061,-641.8989 671.4398,-641.8989 674.6735,-645.1326 674.6735,-648.3663 674.6735,-648.3663 674.6735,-654.8337 674.6735,-654.8337 674.6735,-658.0674 671.4398,-661.3011 668.2061,-661.3011"/>
<text text-anchor="middle" x="635.1312" y="-648.3" font-family="Roboto Condensed, sans-serif" font-size="11.00" fill="#000000">lru&#45;cache@6.0.0</text>
</g>
<!-- semver@7.3.4&#45;&gt;lru&#45;cache@6.0.0 -->
<g id="edge53" class="edge">
<title>semver@7.3.4&#45;&gt;lru&#45;cache@6.0.0</title>
<path fill="none" stroke="#000000" d="M507.317,-651.6C530.0523,-651.6 560.0653,-651.6 585.2944,-651.6"/>
<polygon fill="#000000" stroke="#000000" points="585.4185,-655.1001 595.4184,-651.6 585.4184,-648.1001 585.4185,-655.1001"/>
</g>
<!-- npm&#45;run&#45;path@4.0.1&#45;&gt;path&#45;key@3.1.1 -->
<g id="edge48" class="edge">
<title>npm&#45;run&#45;path@4.0.1&#45;&gt;path&#45;key@3.1.1</title>
<path fill="none" stroke="#000000" d="M521.6726,-540.6C542.3183,-540.6 566.2479,-540.6 586.7937,-540.6"/>
<polygon fill="#000000" stroke="#000000" points="586.8854,-544.1001 596.8853,-540.6 586.8853,-537.1001 586.8854,-544.1001"/>
</g>
<!-- clean&#45;stack@3.0.1&#45;&gt;escape&#45;string&#45;regexp@4.0.0 -->
<g id="edge41" class="edge">
<title>clean&#45;stack@3.0.1&#45;&gt;escape&#45;string&#45;regexp@4.0.0</title>
<path fill="none" stroke="#000000" d="M679.0026,-171.592C693.7261,-173.2674 710.5894,-175.1862 727.0149,-177.0552"/>
<polygon fill="#000000" stroke="#000000" points="726.8309,-180.5568 737.1625,-178.2099 727.6224,-173.6017 726.8309,-180.5568"/>
</g>
<!-- crypto&#45;random&#45;string@3.3.0&#45;&gt;type&#45;fest@0.20.2 -->
<g id="edge45" class="edge">
<title>crypto&#45;random&#45;string@3.3.0&#45;&gt;type&#45;fest@0.20.2</title>
<path fill="none" stroke="#000000" d="M701.605,-250.1639C718.018,-252.0315 735.3473,-254.0034 750.9077,-255.7739"/>
<polygon fill="#000000" stroke="#000000" points="750.5186,-259.2522 760.8502,-256.9053 751.3101,-252.297 750.5186,-259.2522"/>
</g>
<!-- balanced&#45;match@1.0.0 -->
<g id="node51" class="node">
<title>balanced&#45;match@1.0.0</title>
<path fill="none" stroke="#000000" d="M849.4016,-734.3011C849.4016,-734.3011 754.8161,-734.3011 754.8161,-734.3011 751.5824,-734.3011 748.3487,-731.0674 748.3487,-727.8337 748.3487,-727.8337 748.3487,-721.3663 748.3487,-721.3663 748.3487,-718.1326 751.5824,-714.8989 754.8161,-714.8989 754.8161,-714.8989 849.4016,-714.8989 849.4016,-714.8989 852.6353,-714.8989 855.869,-718.1326 855.869,-721.3663 855.869,-721.3663 855.869,-727.8337 855.869,-727.8337 855.869,-731.0674 852.6353,-734.3011 849.4016,-734.3011"/>
<text text-anchor="middle" x="802.1088" y="-721.3" font-family="Roboto Condensed, sans-serif" font-size="11.00" fill="#000000">balanced&#45;match@1.0.0</text>
</g>
<!-- brace&#45;expansion@2.0.0&#45;&gt;balanced&#45;match@1.0.0 -->
<g id="edge55" class="edge">
<title>brace&#45;expansion@2.0.0&#45;&gt;balanced&#45;match@1.0.0</title>
<path fill="none" stroke="#000000" d="M690.2687,-724.6C705.542,-724.6 722.2516,-724.6 737.9894,-724.6"/>
<polygon fill="#000000" stroke="#000000" points="738.1662,-728.1001 748.1662,-724.6 738.1662,-721.1001 738.1662,-728.1001"/>
</g>
<!-- shebang&#45;regex@3.0.0 -->
<g id="node53" class="node">
<title>shebang&#45;regex@3.0.0</title>
<path fill="none" stroke="#000000" d="M846.905,-624.3011C846.905,-624.3011 757.3127,-624.3011 757.3127,-624.3011 754.079,-624.3011 750.8453,-621.0674 750.8453,-617.8337 750.8453,-617.8337 750.8453,-611.3663 750.8453,-611.3663 750.8453,-608.1326 754.079,-604.8989 757.3127,-604.8989 757.3127,-604.8989 846.905,-604.8989 846.905,-604.8989 850.1387,-604.8989 853.3724,-608.1326 853.3724,-611.3663 853.3724,-611.3663 853.3724,-617.8337 853.3724,-617.8337 853.3724,-621.0674 850.1387,-624.3011 846.905,-624.3011"/>
<text text-anchor="middle" x="802.1088" y="-611.3" font-family="Roboto Condensed, sans-serif" font-size="11.00" fill="#000000">shebang&#45;regex@3.0.0</text>
</g>
<!-- shebang&#45;command@2.0.0&#45;&gt;shebang&#45;regex@3.0.0 -->
<g id="edge57" class="edge">
<title>shebang&#45;command@2.0.0&#45;&gt;shebang&#45;regex@3.0.0</title>
<path fill="none" stroke="#000000" d="M695.8863,-614.6C710.3682,-614.6 725.8379,-614.6 740.3637,-614.6"/>
<polygon fill="#000000" stroke="#000000" points="740.7464,-618.1001 750.7463,-614.6 740.7463,-611.1001 740.7464,-618.1001"/>
</g>
<!-- isexe@2.0.0 -->
<g id="node52" class="node">
<title>isexe@2.0.0</title>
<path fill="none" stroke="#000000" d="M825.8726,-587.3011C825.8726,-587.3011 778.3451,-587.3011 778.3451,-587.3011 775.1114,-587.3011 771.8778,-584.0674 771.8778,-580.8337 771.8778,-580.8337 771.8778,-574.3663 771.8778,-574.3663 771.8778,-571.1326 775.1114,-567.8989 778.3451,-567.8989 778.3451,-567.8989 825.8726,-567.8989 825.8726,-567.8989 829.1063,-567.8989 832.3399,-571.1326 832.3399,-574.3663 832.3399,-574.3663 832.3399,-580.8337 832.3399,-580.8337 832.3399,-584.0674 829.1063,-587.3011 825.8726,-587.3011"/>
<text text-anchor="middle" x="802.1088" y="-574.3" font-family="Roboto Condensed, sans-serif" font-size="11.00" fill="#000000">isexe@2.0.0</text>
</g>
<!-- which@2.0.2&#45;&gt;isexe@2.0.0 -->
<g id="edge56" class="edge">
<title>which@2.0.2&#45;&gt;isexe@2.0.0</title>
<path fill="none" stroke="#000000" d="M667.7226,-577.6C694.6027,-577.6 732.8653,-577.6 761.6926,-577.6"/>
<polygon fill="#000000" stroke="#000000" points="761.8478,-581.1001 771.8478,-577.6 761.8478,-574.1001 761.8478,-581.1001"/>
</g>
<!-- yallist@4.0.0 -->
<g id="node54" class="node">
<title>yallist@4.0.0</title>
<path fill="none" stroke="#000000" d="M828.1598,-661.3011C828.1598,-661.3011 776.0579,-661.3011 776.0579,-661.3011 772.8242,-661.3011 769.5905,-658.0674 769.5905,-654.8337 769.5905,-654.8337 769.5905,-648.3663 769.5905,-648.3663 769.5905,-645.1326 772.8242,-641.8989 776.0579,-641.8989 776.0579,-641.8989 828.1598,-641.8989 828.1598,-641.8989 831.3935,-641.8989 834.6272,-645.1326 834.6272,-648.3663 834.6272,-648.3663 834.6272,-654.8337 834.6272,-654.8337 834.6272,-658.0674 831.3935,-661.3011 828.1598,-661.3011"/>
<text text-anchor="middle" x="802.1088" y="-648.3" font-family="Roboto Condensed, sans-serif" font-size="11.00" fill="#000000">yallist@4.0.0</text>
</g>
<!-- lru&#45;cache@6.0.0&#45;&gt;yallist@4.0.0 -->
<g id="edge58" class="edge">
<title>lru&#45;cache@6.0.0&#45;&gt;yallist@4.0.0</title>
<path fill="none" stroke="#000000" d="M674.7026,-651.6C700.1313,-651.6 733.1584,-651.6 759.214,-651.6"/>
<polygon fill="#000000" stroke="#000000" points="759.5486,-655.1001 769.5485,-651.6 759.5485,-648.1001 759.5486,-655.1001"/>
</g>
</g>
</svg>
